<svg width="1000" height="500" viewBox="0 0 1000 500" xmlns="http://www.w3.org/2000/svg" font-family="ui-sans-serif, system-ui, sans-serif">
  <defs>
    <marker id="arrow" viewBox="0 0 10 10" refX="8" refY="5" markerWidth="6" markerHeight="6" orient="auto">
      <path d="M0,0 L10,5 L0,10 z" fill="#935e38"/>
    </marker>
  </defs>

  <rect x="1" y="1" width="998" height="498" rx="16" fill="#0a0f1c" stroke="#1c2438"/>
  <text x="42" y="52" fill="#f2efe9" font-size="24" font-weight="700">Coloma architecture</text>

  <rect x="42" y="165" width="185" height="105" rx="10" fill="#131a2b" stroke="#2a3550" stroke-width="1.5"/>
  <text x="134" y="207" text-anchor="middle" fill="#f2efe9" font-size="16" font-weight="650">Clients</text>
  <text x="134" y="231" text-anchor="middle" fill="#8b93a7" font-size="12">OpenAI SDKs · browser</text>

  <rect x="375" y="120" width="250" height="195" rx="10" fill="#17233a" stroke="#935e38" stroke-width="1.5"/>
  <text x="500" y="161" text-anchor="middle" fill="#f2efe9" font-size="18" font-weight="700">Coloma</text>
  <text x="500" y="194" text-anchor="middle" fill="#f2efe9" font-size="14" font-weight="600">Dashboard + API</text>
  <text x="500" y="219" text-anchor="middle" fill="#8b93a7" font-size="12">Proxy · traffic · validation</text>
  <text x="500" y="241" text-anchor="middle" fill="#8b93a7" font-size="12">Profiling · deployment · pressure tests</text>
  <text x="500" y="278" text-anchor="middle" fill="#935e38" font-size="12">COLOMA_API_KEY</text>

  <rect x="773" y="165" width="185" height="105" rx="10" fill="#131a2b" stroke="#2a3550" stroke-width="1.5"/>
  <text x="865" y="207" text-anchor="middle" fill="#f2efe9" font-size="16" font-weight="650">Model server</text>
  <text x="865" y="231" text-anchor="middle" fill="#8b93a7" font-size="12">Upstream API or vLLM</text>

  <rect x="375" y="380" width="250" height="64" rx="10" fill="#111a29" stroke="#41516d" stroke-width="1.5"/>
  <text x="500" y="407" text-anchor="middle" fill="#f2efe9" font-size="14" font-weight="650">Local persistence</text>
  <text x="500" y="429" text-anchor="middle" fill="#8b93a7" font-size="12">Configuration · traffic · profiler artifacts</text>

  <line x1="233" y1="217" x2="369" y2="217" stroke="#935e38" stroke-width="1.8" marker-end="url(#arrow)"/>
  <line x1="631" y1="217" x2="767" y2="217" stroke="#935e38" stroke-width="1.8" marker-end="url(#arrow)"/>
  <line x1="767" y1="240" x2="631" y2="240" stroke="#935e38" stroke-width="1.8" marker-end="url(#arrow)"/>
  <line x1="500" y1="321" x2="500" y2="374" stroke="#71809b" stroke-width="1.6" marker-end="url(#arrow)"/>

  <text x="300" y="202" text-anchor="middle" fill="#935e38" font-size="11">dashboard /v1</text>
  <text x="699" y="202" text-anchor="middle" fill="#935e38" font-size="11">OpenAI-compatible API</text>
</svg>
